<svg xmlns="http://www.w3.org/2000/svg" xmlns:xlink="http://www.w3.org/1999/xlink" width="1080" zoomAndPan="magnify" viewBox="0 0 810 1439.999935" height="1920" preserveAspectRatio="xMidYMid meet" version="1.0"><path fill="#000000" d="M 216.085938 738.949219 C 222.65625 719.25 232.21875 706.125 251.277344 688.160156 C 285.902344 655.523438 327.964844 630.9375 359.320312 595.144531 C 371.550781 581.183594 382.230469 565.101562 385.75 546.875 C 399.167969 477.355469 311.6875 422.113281 253.828125 460.867188 C 235.363281 473.234375 215.710938 498.953125 219.984375 528.34375 C 222.402344 544.960938 231.582031 556.609375 236.878906 562.324219 C 236.878906 562.324219 236.878906 562.324219 239.195312 578.882812 C 241.507812 595.445312 232.96875 620.886719 232.96875 620.886719 C 232.96875 620.886719 232.96875 620.886719 245.03125 610.273438 C 257.09375 599.660156 262.871094 567.132812 262.871094 567.132812 C 276.042969 564.003906 273.871094 532.878906 275.730469 523.074219 C 279.742188 501.898438 294.671875 487.457031 317.53125 489.175781 C 361.980469 492.511719 367.59375 539.699219 345.710938 570.269531 C 331.621094 589.949219 314.109375 599.695312 298.675781 607.398438 C 298.582031 607.445312 298.433594 607.519531 298.226562 607.625 C 259.289062 627.144531 197.347656 657.9375 179.878906 695.996094 C 161.449219 736.140625 186.925781 796.324219 232.464844 845.46875 C 222.371094 827.519531 201.15625 783.710938 216.085938 738.949219 " fill-opacity="1" fill-rule="nonzero"/><path fill="#000000" d="M 324.90625 723.746094 C 361.695312 719.972656 364.527344 728.464844 432.445312 737.902344 C 477.128906 744.105469 537.988281 741.773438 576.769531 706.820312 C 586.828125 697.753906 604.871094 678.203125 614.5 641.660156 C 599.472656 661.351562 567.691406 696.269531 519.226562 706.820312 C 498.90625 711.242188 479.941406 710.449219 470.570312 710.003906 C 419.0625 707.546875 370.214844 677.492188 318.316406 683.648438 C 281.640625 688.003906 245.289062 714.410156 231.523438 749.214844 C 215.105469 790.734375 245.542969 835.578125 248.5 839.804688 C 242.839844 765.261719 288.117188 727.523438 324.90625 723.746094 " fill-opacity="1" fill-rule="nonzero"/><path fill="#000000" d="M 376.753906 871.539062 C 309.0625 862.085938 270.761719 816.59375 262.613281 806.433594 C 263.066406 839.5625 274.625 858.695312 281.480469 867.765625 C 322.175781 921.609375 424.253906 921.222656 479.570312 875.3125 C 496.539062 861.234375 506.316406 845.179688 511.644531 834.738281 C 502.628906 841.847656 450.207031 881.796875 376.753906 871.539062 " fill-opacity="1" fill-rule="nonzero"/><path fill="#000000" d="M 642.800781 632.730469 C 640.085938 659.570312 630.722656 702.089844 597.519531 734.636719 C 550.710938 780.519531 484.585938 779.078125 437.15625 778.042969 C 392.230469 777.058594 355.96875 767.292969 332.453125 759.171875 C 443.789062 829.242188 565.429688 816.652344 616.386719 752.5625 C 648.699219 711.925781 646.152344 658.671875 642.800781 632.730469 " fill-opacity="1" fill-rule="nonzero"/></svg>